<?xml version="1.0" standalone="no"?>
<!DOCTYPE svg PUBLIC "-//W3C//DTD SVG 20010904//EN"
 "http://www.w3.org/TR/2001/REC-SVG-20010904/DTD/svg10.dtd">
<svg version="1.0" xmlns="http://www.w3.org/2000/svg"
 width="2833.000000pt" height="2833.000000pt" viewBox="0 0 2833.000000 2833.000000"
 preserveAspectRatio="xMidYMid meet">
<metadata>
Created by potrace 1.11, written by Peter Selinger 2001-2013
</metadata>
<g transform="translate(0.000000,2833.000000) scale(0.100000,-0.100000)"
fill="#000000" stroke="none">
<path d="M0 14165 l0 -14165 14165 0 14165 0 0 14165 0 14165 -14165 0 -14165
0 0 -14165z m17740 95 l0 -10810 -710 0 -710 0 0 10810 0 10810 710 0 710 0 0
-10810z m-12180 -2690 l0 -8120 -715 0 -715 0 0 8120 0 8120 715 0 715 0 0
-8120z m18328 -492 l2 -7628 -715 0 -715 0 0 7623 c0 4193 3 7627 7 7630 3 4
324 6 712 5 l706 -3 3 -7627z m-12188 -2413 l0 -5215 -710 0 -710 0 0 5215 0
5215 710 0 710 0 0 -5215z"/>
</g>
</svg>
